<?xml version="1.0" encoding="UTF-8" standalone="no"?>
<!-- Created with Inkscape (http://www.inkscape.org/) -->

<svg
   width="135.36699mm"
   height="135.46664mm"
   viewBox="0 0 135.36699 135.46664"
   version="1.1"
   id="svg1501"
   xml:space="preserve"
   xmlns="http://www.w3.org/2000/svg"
   xmlns:svg="http://www.w3.org/2000/svg"><defs
     id="defs1498"><linearGradient
       id="a"
       gradientTransform="matrix(50.982021,0,0,-52.578703,32529.39,31028.49)"
       gradientUnits="userSpaceOnUse"
       x1="-631.46997"
       x2="-633.88"
       y1="588.08002"
       y2="588.08002"><stop
         offset="0"
         stop-color="#22e6b8"
         id="stop1830" /><stop
         offset="1"
         stop-color="#00c1ce"
         id="stop1832" /></linearGradient><style
       id="style2127">
      .cls-1 {
        fill: url(#linear-gradient-2);
      }

      .cls-2 {
        fill: url(#linear-gradient-4);
      }

      .cls-3 {
        fill: url(#linear-gradient-3);
      }

      .cls-4 {
        fill: url(#linear-gradient-5);
      }

      .cls-5 {
        fill: url(#linear-gradient-6);
      }

      .cls-6 {
        fill: url(#linear-gradient);
      }
    </style><style
       id="style2207">
      .cls-1 {
        fill: #ed0404;
      }

      .cls-1, .cls-2, .cls-3, .cls-4, .cls-5, .cls-6, .cls-7, .cls-8, .cls-9 {
        stroke-width: 0px;
      }

      .cls-3 {
        fill: #cbdbfc;
      }

      .cls-4 {
        fill: #790303;
      }

      .cls-5 {
        fill: #222035;
      }

      .cls-6 {
        fill: #f68383;
      }

      .cls-7 {
        fill: #800303;
      }

      .cls-8 {
        fill: #aa0303;
      }

      .cls-9 {
        fill: #ed0c0c;
      }

      .cls-10 {
        display: none;
      }
    </style><style
       id="style5031">
      .cls-1 {
        fill: url(#linear-gradient-2);
      }

      .cls-2 {
        fill: url(#linear-gradient-4);
      }

      .cls-3 {
        fill: url(#linear-gradient-3);
      }

      .cls-4 {
        fill: url(#linear-gradient-5);
      }

      .cls-5 {
        fill: url(#linear-gradient-6);
      }

      .cls-6 {
        fill: url(#linear-gradient);
      }
    </style><style
       id="style5300">
      .cls-1 {
        fill: #ed0404;
      }

      .cls-1, .cls-2, .cls-3, .cls-4, .cls-5, .cls-6, .cls-7, .cls-8, .cls-9 {
        stroke-width: 0px;
      }

      .cls-3 {
        fill: #cbdbfc;
      }

      .cls-4 {
        fill: #790303;
      }

      .cls-5 {
        fill: #222035;
      }

      .cls-6 {
        fill: #f68383;
      }

      .cls-7 {
        fill: #800303;
      }

      .cls-8 {
        fill: #aa0303;
      }

      .cls-9 {
        fill: #ed0c0c;
      }

      .cls-10 {
        display: none;
      }
    </style></defs><g
     id="layer1"
     transform="translate(-202.89733,-12.550599)"><g
       id="g2055"
       transform="translate(-5.5859339,-24.043437)"><rect
         style="fill:none;stroke-width:12.3388;stop-color:#000000"
         id="rect1674-2"
         width="135.367"
         height="135.46666"
         x="208.48328"
         y="36.594036" /><path
         d="m 297.09707,87.833702 a 25.323358,25.323358 0 0 0 -35.41439,0 24.860321,24.860321 0 0 0 0.0959,35.270688 25.291426,25.291426 0 0 0 35.52615,0.11165 c 0.17562,-0.17561 0.86224,-0.92609 2.0757,-2.26731 l -11.81546,-11.73559 c -1.21346,1.40507 -1.85211,2.13955 -1.93194,2.20342 a 8.5582096,8.5582096 0 0 1 -12.07091,0 8.414508,8.414508 0 0 1 -0.11164,-11.895279 8.5582096,8.5582096 0 0 1 11.97508,0.09581 l 31.58235,31.342889 a 47.48529,47.48529 0 0 1 -38.76739,20.27785 46.862584,46.862584 0 1 1 37.61779,-74.788572 q -2.0757,2.42695 -10.68179,12.086864 l 11.70364,11.512078 19.28791,-21.635028 a 63.5,63.5 0 1 0 -57.92755,89.414178 c 15.96679,0 29.17132,-4.96572 42.08847,-15.96685 a 67.906838,67.906838 0 0 0 17.30807,-23.6947 z"
         fill="url(#a)"
         id="path1836"
         style="fill:url(#a);stroke-width:1.59668" /></g></g><style
     type="text/css"
     id="style2868">
	.st0{fill-rule:evenodd;clip-rule:evenodd;}
	.st1{fill-rule:evenodd;clip-rule:evenodd;fill:#2354E6;}
	.st2{fill-rule:evenodd;clip-rule:evenodd;fill:#17E6A1;}
</style></svg>
