<?xml version="1.0" encoding="UTF-8" standalone="no"?>
<!-- Created with Inkscape (http://www.inkscape.org/) -->

<svg
   width="135.46664mm"
   height="135.46664mm"
   viewBox="0 0 135.46664 135.46664"
   version="1.1"
   id="svg1501"
   inkscape:version="1.2.2 (b0a8486541, 2022-12-01)"
   sodipodi:docname="logos-website.svg"
   xml:space="preserve"
   xmlns:inkscape="http://www.inkscape.org/namespaces/inkscape"
   xmlns:sodipodi="http://sodipodi.sourceforge.net/DTD/sodipodi-0.dtd"
   xmlns:xlink="http://www.w3.org/1999/xlink"
   xmlns="http://www.w3.org/2000/svg"
   xmlns:svg="http://www.w3.org/2000/svg"><sodipodi:namedview
     id="namedview1503"
     pagecolor="#ffffff"
     bordercolor="#666666"
     borderopacity="1.0"
     inkscape:showpageshadow="2"
     inkscape:pageopacity="0.0"
     inkscape:pagecheckerboard="0"
     inkscape:deskcolor="#d1d1d1"
     inkscape:document-units="mm"
     showgrid="false"
     inkscape:zoom="0.34896585"
     inkscape:cx="2048.9111"
     inkscape:cy="954.24811"
     inkscape:window-width="1920"
     inkscape:window-height="1011"
     inkscape:window-x="0"
     inkscape:window-y="32"
     inkscape:window-maximized="1"
     inkscape:current-layer="layer1" /><defs
     id="defs1498"><style
       id="style2127">
      .cls-1 {
        fill: url(#linear-gradient-2);
      }

      .cls-2 {
        fill: url(#linear-gradient-4);
      }

      .cls-3 {
        fill: url(#linear-gradient-3);
      }

      .cls-4 {
        fill: url(#linear-gradient-5);
      }

      .cls-5 {
        fill: url(#linear-gradient-6);
      }

      .cls-6 {
        fill: url(#linear-gradient);
      }
    </style><linearGradient
       id="linear-gradient"
       x1="282"
       y1="4.3000002"
       x2="282"
       y2="1054.7"
       gradientUnits="userSpaceOnUse"><stop
         offset="0"
         stop-color="#71cc3a"
         id="stop2129" /><stop
         offset="1"
         stop-color="#ccff3a"
         id="stop2131" /></linearGradient><style
       id="style2207">
      .cls-1 {
        fill: #ed0404;
      }

      .cls-1, .cls-2, .cls-3, .cls-4, .cls-5, .cls-6, .cls-7, .cls-8, .cls-9 {
        stroke-width: 0px;
      }

      .cls-3 {
        fill: #cbdbfc;
      }

      .cls-4 {
        fill: #790303;
      }

      .cls-5 {
        fill: #222035;
      }

      .cls-6 {
        fill: #f68383;
      }

      .cls-7 {
        fill: #800303;
      }

      .cls-8 {
        fill: #aa0303;
      }

      .cls-9 {
        fill: #ed0c0c;
      }

      .cls-10 {
        display: none;
      }
    </style><style
       id="style5031">
      .cls-1 {
        fill: url(#linear-gradient-2);
      }

      .cls-2 {
        fill: url(#linear-gradient-4);
      }

      .cls-3 {
        fill: url(#linear-gradient-3);
      }

      .cls-4 {
        fill: url(#linear-gradient-5);
      }

      .cls-5 {
        fill: url(#linear-gradient-6);
      }

      .cls-6 {
        fill: url(#linear-gradient);
      }
    </style><linearGradient
       id="linear-gradient-2-8"
       x1="895.09998"
       y1="4.3000002"
       x2="895.09998"
       y2="1054.7"
       xlink:href="#linear-gradient" /><linearGradient
       id="linear-gradient-3-7"
       x1="454"
       y1="4.3000002"
       x2="454"
       y2="1054.7"
       xlink:href="#linear-gradient" /><linearGradient
       id="linear-gradient-4-9"
       x1="308.89999"
       y1="4.3000002"
       x2="308.89999"
       y2="1054.7"
       xlink:href="#linear-gradient" /><linearGradient
       id="linear-gradient-5-2"
       x1="595.79999"
       y1="4.3000002"
       x2="595.79999"
       y2="1054.7"
       xlink:href="#linear-gradient" /><linearGradient
       id="linear-gradient-6-0"
       x1="639.29999"
       y1="4.3000002"
       x2="639.29999"
       y2="1054.7"
       xlink:href="#linear-gradient" /><linearGradient
       inkscape:collect="always"
       xlink:href="#linear-gradient"
       id="linearGradient5094"
       gradientUnits="userSpaceOnUse"
       x1="282"
       y1="4.3000002"
       x2="282"
       y2="1054.7" /><style
       id="style5300">
      .cls-1 {
        fill: #ed0404;
      }

      .cls-1, .cls-2, .cls-3, .cls-4, .cls-5, .cls-6, .cls-7, .cls-8, .cls-9 {
        stroke-width: 0px;
      }

      .cls-3 {
        fill: #cbdbfc;
      }

      .cls-4 {
        fill: #790303;
      }

      .cls-5 {
        fill: #222035;
      }

      .cls-6 {
        fill: #f68383;
      }

      .cls-7 {
        fill: #800303;
      }

      .cls-8 {
        fill: #aa0303;
      }

      .cls-9 {
        fill: #ed0c0c;
      }

      .cls-10 {
        display: none;
      }
    </style></defs><g
     inkscape:label="Layer 1"
     inkscape:groupmode="layer"
     id="layer1"
     transform="translate(-206.44077,-198.22519)"><g
       id="g5057"
       transform="matrix(0.12239025,0,0,0.12239025,447.74552,347.59402)"><g
         id="g5140"
         transform="translate(-562.84986,-1410.3928)"><rect
           style="fill:none;stroke-width:12.3433;stop-color:#000000"
           id="rect1674-37"
           width="135.46666"
           height="135.46666"
           x="278.6091"
           y="357.65182"
           transform="matrix(8.1705856,0,0,8.1705856,-3685.1507,-2732.2628)" /><g
           id="g5129"
           transform="matrix(0.96000001,0,0,0.96000001,-1374.1145,224.50325)"><path
             class="cls-6"
             d="m 204,574.7 c 0,-0.4 -0.2,-0.8 -0.3,-1.3 -5.8,-25.5 -9.4,-51.9 -10.9,-78.8 -0.7,-13.3 -0.9,-26.8 -0.5,-40.4 C 199,232.6 355.6,52.1 558.3,14 c 8.1,-1.5 7.3,-13.4 -1,-13.7 -0.2,0 -0.5,0 -0.7,0 C 258.3,-8.7 9.2,225.9 0.2,524.2 -3.9,660 42.7,785.6 122.6,883 l 38,-57.6 c 48.8,-73.9 63,-164.4 43.3,-250.7 z"
             id="path5045"
             style="fill:url(#linearGradient5094)" /><path
             class="cls-1"
             d="m 915.9,359.9 c -2.9,-26 -6.9,-49.7 -12.7,-67.5 -0.5,-1.5 0.3,-2.9 1.8,-3.4 8.9,-2.8 18.7,-9.6 27,-17.9 33.8,-33.8 65.1,-119.9 31.3,-153.6 -33.7,-33.7 -119.8,-2.5 -153.6,31.3 -8.3,8.3 -15.1,18.1 -17.9,27 -0.5,1.5 -1.9,2.3 -3.4,1.8 -17.9,-5.8 -41.6,-9.8 -67.5,-12.7 74.2,-61 304.4,-183.7 341.5,-146.6 37.1,37.1 -85.7,267.3 -146.6,341.5 z"
             id="path5047"
             style="fill:url(#linear-gradient-2-8)" /><path
             class="cls-3"
             d="m 553.9,684.7 c -17.9,10.9 -35.3,20.8 -51.7,29 -2.9,1.4 -5.5,2.7 -8.1,4 l -3.8,1.9 c -4.1,2 -8.1,3.6 -13.8,7.2 -0.5,0 -61.7,-60.7 -61.7,-60.7 0,0 -60.6,-61.3 -60.7,-61.7 3.6,-5.7 5.2,-9.7 7.2,-13.8 l 1.9,-3.8 c 1.3,-2.6 2.6,-5.2 4,-8.1 8.2,-16.5 18.1,-33.8 29,-51.7 52.5,17.8 90.3,54.4 94.8,59 l 4,4 c 4.5,4.5 41.2,42.4 59,94.8 z"
             id="path5049"
             style="fill:url(#linear-gradient-3-7)" /><path
             class="cls-2"
             d="M 462.1,736.2 165.4,924 c -2.8,1.9 -5.8,1.1 -7.7,-0.8 -1.9,-1.9 -2.7,-4.9 -0.8,-7.7 L 344.7,618.8 c 0,0 8.8,40.7 -27.5,109.2 -25.8,48.6 -111.1,146.9 -111.3,147 0.1,-0.1 98.4,-85.5 147,-111.3 68.5,-36.3 109.2,-27.5 109.2,-27.5 z"
             id="path5051"
             style="fill:url(#linear-gradient-4-9)" /><path
             class="cls-4"
             d="M 863.2,585.4 C 855,592 671.2,739 657.1,750.2 c -16.3,13.1 -27.7,18.5 -33.9,19.4 l 22.2,-40 17.9,-31.9 c 19.5,-35.1 38,-68.4 39.9,-71.9 0.5,-0.7 1,-1.5 1.4,-2.5 3.5,-5.9 8.6,-14.7 7.6,-24.7 -0.2,-1.8 -0.5,-4.2 -11.5,-20.9 -10.4,8.6 -20.1,16.4 -29.3,23.7 -31.9,25.5 -63.1,48.1 -93,67.8 -19.9,-53.6 -55.6,-91.4 -63.5,-99.2 l -4,-4 c -7.8,-7.8 -45.5,-43.6 -99.2,-63.5 19.7,-29.9 42.3,-61.2 67.8,-93 7.3,-9.2 15.1,-18.9 23.7,-29.3 -16.7,-11 -19.1,-11.3 -20.9,-11.5 -10,-1 -18.8,4.1 -24.7,7.6 -0.9,0.4 -1.8,0.9 -2.5,1.4 -3.5,1.9 -36.8,20.5 -71.9,39.9 l -31.9,17.9 -40,22.2 c 0.9,-6.2 6.2,-17.5 19.4,-33.9 11.2,-14.1 158.2,-197.9 164.8,-206.1 9.7,-12 98.4,-19.8 182.8,-16.4 18.1,0.6 18.5,1.9 35.5,3.7 -46.7,34.3 -70.9,49.4 -135.8,111.3 22.2,-12.1 155.5,-93.2 186.7,-110.2 4.2,-2.4 9,-2.1 12.8,0 l 0.4,-0.4 c 41.6,18.1 48.5,25.7 60.1,37.2 11.6,11.6 19.2,18.5 37.2,60.1 l -0.4,0.4 c 2.1,3.8 2.3,8.6 0,12.8 -17,31.2 -98.1,164.5 -110.2,186.7 61.9,-64.9 77.1,-89 111.3,-135.8 1.9,17 3.1,17.3 3.7,35.5 3.4,84.4 -4.4,173.1 -16.4,182.8 z"
             id="path5053"
             style="fill:url(#linear-gradient-5-2)" /><path
             class="cls-5"
             d="m 506.1,876.9 c 0.4,0 0.8,0.2 1.3,0.3 25.5,5.8 51.9,9.4 78.8,10.9 13.3,0.7 26.8,0.9 40.4,0.5 221.6,-6.7 402.1,-163.3 440.3,-366 1.5,-8.1 13.4,-7.3 13.7,1 0,0.2 0,0.5 0,0.7 9,298.3 -225.6,547.4 -524,556.4 -135.8,4.1 -261.4,-42.5 -358.8,-122.4 l 57.6,-38 c 73.9,-48.8 164.4,-63 250.7,-43.3 z"
             id="path5055"
             style="fill:url(#linear-gradient-6-0)" /></g></g></g></g><style
     type="text/css"
     id="style2868">
	.st0{fill-rule:evenodd;clip-rule:evenodd;}
	.st1{fill-rule:evenodd;clip-rule:evenodd;fill:#2354E6;}
	.st2{fill-rule:evenodd;clip-rule:evenodd;fill:#17E6A1;}
</style></svg>
