<?xml version="1.0" encoding="UTF-8" standalone="no"?>
<!-- Created with Inkscape (http://www.inkscape.org/) -->

<svg
   width="135.46664mm"
   height="135.46667mm"
   viewBox="0 0 135.46664 135.46667"
   version="1.1"
   id="svg1501"
   xml:space="preserve"
   xmlns="http://www.w3.org/2000/svg"
   xmlns:svg="http://www.w3.org/2000/svg"><defs
     id="defs1498"><style
       id="style2127">
      .cls-1 {
        fill: url(#linear-gradient-2);
      }

      .cls-2 {
        fill: url(#linear-gradient-4);
      }

      .cls-3 {
        fill: url(#linear-gradient-3);
      }

      .cls-4 {
        fill: url(#linear-gradient-5);
      }

      .cls-5 {
        fill: url(#linear-gradient-6);
      }

      .cls-6 {
        fill: url(#linear-gradient);
      }
    </style><style
       id="style2207">
      .cls-1 {
        fill: #ed0404;
      }

      .cls-1, .cls-2, .cls-3, .cls-4, .cls-5, .cls-6, .cls-7, .cls-8, .cls-9 {
        stroke-width: 0px;
      }

      .cls-3 {
        fill: #cbdbfc;
      }

      .cls-4 {
        fill: #790303;
      }

      .cls-5 {
        fill: #222035;
      }

      .cls-6 {
        fill: #f68383;
      }

      .cls-7 {
        fill: #800303;
      }

      .cls-8 {
        fill: #aa0303;
      }

      .cls-9 {
        fill: #ed0c0c;
      }

      .cls-10 {
        display: none;
      }
    </style><style
       id="style5031">
      .cls-1 {
        fill: url(#linear-gradient-2);
      }

      .cls-2 {
        fill: url(#linear-gradient-4);
      }

      .cls-3 {
        fill: url(#linear-gradient-3);
      }

      .cls-4 {
        fill: url(#linear-gradient-5);
      }

      .cls-5 {
        fill: url(#linear-gradient-6);
      }

      .cls-6 {
        fill: url(#linear-gradient);
      }
    </style><style
       id="style5300">
      .cls-1 {
        fill: #ed0404;
      }

      .cls-1, .cls-2, .cls-3, .cls-4, .cls-5, .cls-6, .cls-7, .cls-8, .cls-9 {
        stroke-width: 0px;
      }

      .cls-3 {
        fill: #cbdbfc;
      }

      .cls-4 {
        fill: #790303;
      }

      .cls-5 {
        fill: #222035;
      }

      .cls-6 {
        fill: #f68383;
      }

      .cls-7 {
        fill: #800303;
      }

      .cls-8 {
        fill: #aa0303;
      }

      .cls-9 {
        fill: #ed0c0c;
      }

      .cls-10 {
        display: none;
      }
    </style></defs><g
     id="layer1"
     transform="translate(-28.07985,-391.33876)"><g
       id="g457393"
       transform="translate(33.613432,-14.240104)"><rect
         style="fill:none;stroke-width:12.3433;stop-color:#000000"
         id="rect1674-99"
         width="135.46666"
         height="135.46666"
         x="-5.5335803"
         y="405.57886" /><g
         id="g302056"
         transform="matrix(1.8656541,0,0,1.8656541,-21779.514,-570.47864)"><path
           id="rect28834-4-7"
           style="fill:#217867;stroke-width:3.06523;stop-color:#000000"
           d="m 11686.091,527.91535 c -5.753,0 -10.384,4.63092 -10.384,10.38316 v 46.25013 c 0,5.75224 4.631,10.38316 10.384,10.38316 h 7.188 39.061 10.383 v -10.38316 -35.9278 -10.32233 c 0,-5.75224 -4.631,-10.38316 -10.383,-10.38316 z" /><path
           id="rect28834-1"
           style="fill:#5fd3bc;stroke-width:3.06523;stop-color:#000000"
           d="m 11682.198,524.02249 c -5.753,0 -10.384,4.63092 -10.384,10.38316 v 46.25013 c 0,5.75224 4.631,10.38316 10.384,10.38316 h 7.188 39.061 10.383 v -10.38316 -35.9278 -10.32233 c 0,-5.75224 -4.631,-10.38316 -10.383,-10.38316 z" /><path
           id="rect28834-44-7"
           style="fill:#333333;stroke-width:1.65437;stop-color:#000000"
           d="m 11701.776,548.38075 c -3.105,0 -5.604,2.4994 -5.604,5.604 v 24.9621 c 0,3.10459 2.499,5.60399 5.604,5.60399 h 3.88 21.082 5.604 v -5.60399 -19.39094 -5.57116 c 0,-3.1046 -2.499,-5.604 -5.604,-5.604 z" /><path
           id="path302042"
           style="color:#000000;font-size:31.7917px;-inkscape-font-specification:'Prompt Medium';fill:#ffffff;stroke:none;stroke-width:1.19;-inkscape-stroke:none"
           d="m 11704.029,554.75994 v 0.59531 22.81669 h 7.686 c 3.933,0 7.086,-0.97577 9.359,-2.97863 v -0.002 c 2.283,-2.03421 3.41,-5.03269 3.41,-8.83564 0,-2.33084 -0.499,-4.39423 -1.511,-6.14846 -1.011,-1.75201 -2.476,-3.1118 -4.35,-4.04885 -1.876,-0.93833 -4.071,-1.39836 -6.561,-1.39836 z m 5.229,4.52737 h 2.933 c 1.485,0 2.731,0.30726 3.774,0.90589 v 0.004 0.002 c 1.049,0.58283 1.836,1.38838 2.4,2.45876 v 0.002 0.002 c 0.563,1.04874 0.852,2.26951 0.852,3.69331 0,2.36782 -0.649,4.12202 -1.924,5.39657 -1.246,1.24597 -3.045,1.89239 -5.526,1.89239 h -2.519 z" /></g></g></g><style
     type="text/css"
     id="style2868">
	.st0{fill-rule:evenodd;clip-rule:evenodd;}
	.st1{fill-rule:evenodd;clip-rule:evenodd;fill:#2354E6;}
	.st2{fill-rule:evenodd;clip-rule:evenodd;fill:#17E6A1;}
</style></svg>
