<?xml version="1.0" encoding="UTF-8" standalone="no"?>
<!-- Created with Inkscape (http://www.inkscape.org/) -->

<svg
   width="135.46655mm"
   height="135.46664mm"
   viewBox="0 0 135.46655 135.46664"
   version="1.1"
   id="svg1202"
   xml:space="preserve"
   xmlns="http://www.w3.org/2000/svg"
   xmlns:svg="http://www.w3.org/2000/svg"><defs
     id="defs1199"><style
       id="style59759">
      .card { fill: #f3e6cf; stroke: #d6c8ad; stroke-width: 3; rx: 12; ry: 12; }
      .hole { fill: #ffffff; stroke: #dcdcdc; stroke-width: 1.2; rx: 6; ry: 6; }
      .solid { fill: #1f1f1f; }
      .label { font-family: &quot;Courier New&quot;, Courier, monospace; font-size: 14px; fill: #333333; }
      .title { font-family: &quot;Courier New&quot;, Courier, monospace; font-size: 20px; font-weight:700; fill: #111111; }
      .bitnum { font-family: &quot;Courier New&quot;, Courier, monospace; font-size: 12px; fill: #444444; }
      .note { font-family: &quot;Courier New&quot;, Courier, monospace; font-size: 12px; fill: #333333; opacity: 0.9; }
      .frame { fill: none; stroke: rgba(0,0,0,0.04); stroke-width: 2; rx: 10; ry: 10; }
    </style><style
       id="style60322">
      .card { fill: #f7f2e7; stroke: #e0d3b8; stroke-width: 3; rx: 12; ry: 12; }
      .hole { fill: #ffffff; stroke: #dcdcdc; stroke-width: 1.2; rx: 8; ry: 8; }
      .solid { fill: #232323; }
      .label { font-family: &quot;Courier New&quot;, Courier, monospace; font-size: 14px; fill: #333333; }
      .title { font-family: &quot;Courier New&quot;, Courier, monospace; font-size: 18px; font-weight:700; fill: #111111; }
      .bitnum { font-family: &quot;Courier New&quot;, Courier, monospace; font-size: 12px; fill: #444444; }
      .note { font-family: &quot;Courier New&quot;, Courier, monospace; font-size: 12px; fill: #333333; opacity: 0.95; }
      .frame { fill: none; stroke: rgba(0,0,0,0.05); stroke-width: 2; rx: 10; ry: 10; }
    </style></defs><g
     id="layer1"
     transform="translate(-3747.5941,-130.36789)"><g
       id="g367015"><g
         id="g367004"
         transform="matrix(2.1199645,0,0,2.1199645,-4082.2893,-251.62361)"><g
           id="g366859"><g
             id="g366851"
             transform="matrix(0.75184243,0,0,0.75184243,914.74998,52.007701)"><path
               d="m 3738.5826,223.65243 q -2.9782,0 -5.2401,-1.09326 -2.2242,-1.13095 -3.4683,-3.46827 -1.244,-2.37501 -1.244,-5.99407 0,-3.80756 1.3571,-6.18257 1.3572,-2.37501 3.6945,-3.46827 2.3373,-1.13096 5.3155,-1.13096 1.8095,0 3.3929,0.37698 1.621,0.37699 2.8651,1.01787 l -1.6965,4.29764 q -1.1309,-0.49009 -2.2996,-0.79167 -1.131,-0.33929 -2.2619,-0.33929 -1.4703,0 -2.4881,0.67857 -1.0179,0.67858 -1.5457,2.07343 -0.5277,1.35715 -0.5277,3.43057 0,2.03572 0.5277,3.35516 0.5278,1.31946 1.5457,1.99803 1.0178,0.64089 2.4127,0.64089 1.621,0 3.0536,-0.4147 1.4325,-0.45238 2.7143,-1.16865 v 4.63692 q -1.1687,0.71629 -2.6389,1.13096 -1.4703,0.41469 -3.4683,0.41469 z"
               style="font-weight:bold;font-size:37.6986px;line-height:1.25;-inkscape-font-specification:'sans-serif Bold';fill:#3498db;stroke:#3498db;stroke-width:0.886672"
               id="path48950-2-3" /><path
               d="m 3766.4197,216.07502 q -0.1508,-0.64088 -0.4524,-1.88493 -0.2639,-1.28176 -0.6032,-2.7143 -0.3393,-1.47025 -0.6408,-2.6766 -0.3016,-1.24406 -0.4147,-1.80954 h -0.1508 q -0.1131,0.56548 -0.4147,1.80954 -0.2639,1.20635 -0.6032,2.6766 -0.3393,1.43254 -0.6409,2.7143 -0.3016,1.28175 -0.4523,1.96032 l -1.6588,7.12504 h -6.0318 l -5.8432,-20.58344 h 5.5793 l 2.3751,9.12306 q 0.2638,0.94247 0.4523,2.26192 0.2262,1.31945 0.4147,2.56351 0.1885,1.20635 0.2639,1.92262 h 0.1508 q 0.038,-0.52778 0.1508,-1.39484 0.1131,-0.90477 0.2639,-1.84724 0.1885,-0.94246 0.3016,-1.69643 0.1508,-0.79167 0.2262,-1.05556 l 2.5258,-9.87704 h 6.1826 l 2.4127,9.87704 q 0.1508,0.52778 0.3393,1.69643 0.2261,1.16866 0.3769,2.37502 0.1885,1.20635 0.1885,1.92262 h 0.1508 q 0.075,-0.64087 0.2639,-1.84723 0.1885,-1.24405 0.4147,-2.6012 0.2639,-1.35715 0.5278,-2.29962 l 2.4504,-9.12306 h 5.504 l -5.9187,20.58344 h -6.1072 z"
               style="font-weight:bold;font-size:37.6986px;line-height:1.25;-inkscape-font-specification:'sans-serif Bold';fill:#3498db;stroke:#3498db;stroke-width:0.886672"
               id="path48960-6-3" /></g><g
             id="g10235-6-8-7-8-1-1-6-3-2-5"
             transform="matrix(4.079494,0,0,4.079494,-4494.3539,-2543.4058)"
             style="fill:#3498db"><path
               style="font-weight:bold;font-size:6.40545px;line-height:1;font-family:'Space Grotesk';-inkscape-font-specification:'Space Grotesk Bold';fill:#3498db;fill-opacity:1;stroke-width:1.12326"
               d="m 2011.3589,675.88691 h -4.2762 v 4.32067 h 1.9812 v -3.80649 l 3.4422,3.80649 h 2.9218 z"
               id="path10229-8-9-71-1-7-9-4-7-2-7" /><path
               style="font-weight:bold;font-size:6.40545px;line-height:1;font-family:'Space Grotesk';-inkscape-font-specification:'Space Grotesk Bold';fill:#3498db;fill-opacity:1;stroke-width:1.12326"
               d="m 2007.0827,670.71668 v 4.32067 h 4.147 l 4.0478,-4.32067 h -2.5363 l -3.6773,3.72897 v -3.72897 z"
               id="path5057-4-6-1-14-5-2-2-7-8-2-15-0-5-0-6-7-0-1" /></g></g></g><rect
         style="fill:none;stroke-width:0.543583;stop-color:#000000"
         id="rect366968-8"
         width="135.46666"
         height="135.46666"
         x="3747.5942"
         y="130.36789" /></g></g></svg>
