<?xml version="1.0" encoding="UTF-8" standalone="no"?>
<!-- Created with Inkscape (http://www.inkscape.org/) -->

<svg
   width="135.46655mm"
   height="135.46664mm"
   viewBox="0 0 135.46655 135.46664"
   version="1.1"
   id="svg1202"
   xml:space="preserve"
   xmlns="http://www.w3.org/2000/svg"
   xmlns:svg="http://www.w3.org/2000/svg"><defs
     id="defs1199"><style
       id="style59759">
      .card { fill: #f3e6cf; stroke: #d6c8ad; stroke-width: 3; rx: 12; ry: 12; }
      .hole { fill: #ffffff; stroke: #dcdcdc; stroke-width: 1.2; rx: 6; ry: 6; }
      .solid { fill: #1f1f1f; }
      .label { font-family: &quot;Courier New&quot;, Courier, monospace; font-size: 14px; fill: #333333; }
      .title { font-family: &quot;Courier New&quot;, Courier, monospace; font-size: 20px; font-weight:700; fill: #111111; }
      .bitnum { font-family: &quot;Courier New&quot;, Courier, monospace; font-size: 12px; fill: #444444; }
      .note { font-family: &quot;Courier New&quot;, Courier, monospace; font-size: 12px; fill: #333333; opacity: 0.9; }
      .frame { fill: none; stroke: rgba(0,0,0,0.04); stroke-width: 2; rx: 10; ry: 10; }
    </style><style
       id="style60322">
      .card { fill: #f7f2e7; stroke: #e0d3b8; stroke-width: 3; rx: 12; ry: 12; }
      .hole { fill: #ffffff; stroke: #dcdcdc; stroke-width: 1.2; rx: 8; ry: 8; }
      .solid { fill: #232323; }
      .label { font-family: &quot;Courier New&quot;, Courier, monospace; font-size: 14px; fill: #333333; }
      .title { font-family: &quot;Courier New&quot;, Courier, monospace; font-size: 18px; font-weight:700; fill: #111111; }
      .bitnum { font-family: &quot;Courier New&quot;, Courier, monospace; font-size: 12px; fill: #444444; }
      .note { font-family: &quot;Courier New&quot;, Courier, monospace; font-size: 12px; fill: #333333; opacity: 0.95; }
      .frame { fill: none; stroke: rgba(0,0,0,0.05); stroke-width: 2; rx: 10; ry: 10; }
    </style></defs><g
     id="layer1"
     transform="translate(-3733.2867,-303.46708)"><g
       id="g331448"><g
         id="Group_2799"
         data-name="Group 2799"
         transform="matrix(0.33073187,0,0,0.33073187,3742.7653,305.05381)"><path
           id="Path_897-2"
           data-name="Path 897-2"
           d="m 6291.063,-5948.871 c 0,-0.943 -0.026,-1.918 -0.058,-2.882 0,-0.3 -0.032,-0.59 -0.037,-0.891 -0.042,-0.722 -0.079,-1.465 -0.137,-2.219 -0.021,-0.3 -0.042,-0.59 -0.068,-0.9 -0.079,-1.017 -0.169,-2.04 -0.285,-3.088 0,-0.137 -0.037,-0.279 -0.053,-0.427 -0.105,-0.922 -0.227,-1.844 -0.363,-2.793 -0.053,-0.363 -0.105,-0.738 -0.163,-1.085 -0.116,-0.78 -0.232,-1.565 -0.38,-2.355 -0.058,-0.364 -0.116,-0.733 -0.174,-1.1 -0.2,-1.091 -0.4,-2.2 -0.622,-3.331 -0.063,-0.311 -0.137,-0.632 -0.211,-0.943 -0.185,-0.859 -0.358,-1.718 -0.548,-2.6 l -0.332,-1.449 c -0.174,-0.759 -0.358,-1.533 -0.543,-2.313 -0.121,-0.479 -0.237,-0.959 -0.363,-1.444 q -0.435,-1.723 -0.917,-3.5 c -0.147,-0.517 -0.29,-1.043 -0.448,-1.571 -0.216,-0.759 -0.427,-1.512 -0.653,-2.282 -0.179,-0.617 -0.369,-1.254 -0.559,-1.887 -0.211,-0.706 -0.427,-1.407 -0.653,-2.124 -0.2,-0.643 -0.39,-1.286 -0.606,-1.934 -0.379,-1.186 -0.769,-2.387 -1.18,-3.6 -0.248,-0.743 -0.506,-1.491 -0.765,-2.229 -0.222,-0.643 -0.437,-1.286 -0.664,-1.923 -0.269,-0.8 -0.563,-1.6 -0.849,-2.4 -0.216,-0.6 -0.437,-1.2 -0.653,-1.8 -0.69,-1.887 -1.407,-3.789 -2.149,-5.723 -0.063,-0.179 -0.127,-0.342 -0.185,-0.516 -0.375,-0.949 -0.754,-1.913 -1.123,-2.856 -0.216,-0.522 -0.421,-1.054 -0.632,-1.591 -0.391,-0.975 -0.785,-1.95 -1.191,-2.946 -0.179,-0.443 -0.363,-0.9 -0.537,-1.339 -1.407,-3.431 -2.915,-6.936 -4.485,-10.529 -0.185,-0.422 -0.363,-0.833 -0.548,-1.26 -0.506,-1.164 -1.022,-2.329 -1.56,-3.51 -0.111,-0.263 -0.237,-0.526 -0.354,-0.79 q -2.64,-5.858 -5.555,-11.994 c -0.168,-0.348 -0.332,-0.7 -0.5,-1.055 -0.644,-1.327 -1.281,-2.661 -1.935,-4.021 l -0.058,-0.132 q -3.146,-6.482 -6.593,-13.27 l -0.517,-1.012 q -3.193,-6.277 -6.65,-12.832 c -0.147,-0.29 -0.295,-0.574 -0.448,-0.859 q -3.6,-6.822 -7.473,-13.928 l -0.185,-0.332 q -1.32,-2.427 -2.677,-4.864 v -0.021 0 q -5.272,-9.58 -11.046,-19.667 c -33.137,-57.948 -66.764,-107.675 -67.1,-108.175 a 17.835,17.835 0 0 0 -17.278,-7.637 17.807,17.807 0 0 0 -14.413,12.205 l -62.627,195.945 a 17.788,17.788 0 0 0 3.821,17.438 c 1.407,1.544 141.344,154.524 154.118,168.452 a 17.788,17.788 0 0 0 13.127,5.76 17.7,17.7 0 0 0 8.849,-2.361 c 2.013,-1.154 48.493,-28.752 50.169,-107.111 v -0.174 c 0,-1.405 0.019,-2.812 0.019,-4.225 z"
           transform="translate(-6060.116,6234.999)"
           fill="#714dff" /><path
           id="Path_898-2"
           data-name="Path 898-2"
           d="m 6345.8,-6026.65 -62.633,-195.956 a 17.811,17.811 0 0 0 -14.413,-12.205 17.858,17.858 0 0 0 -17.275,7.642 c -0.332,0.5 -33.948,50.211 -67.1,108.164 l -0.812,1.444 q 10.98,19.541 20.047,37.042 c 19.009,-34.623 39.978,-69.03 57.025,-95.7 l 48.125,150.582 -60.514,66.137 c 0.369,3.705 0.548,7.241 0.563,10.635 a 192.193,192.193 0 0 1 -5.8,47.818 c 44.041,-48.124 98.078,-107.21 98.964,-108.169 a 17.8,17.8 0 0 0 3.823,-17.434 z"
           transform="translate(-5994.362,6234.99)"
           fill="#714dff" /></g><rect
         style="fill:none;stroke-width:0.923658;stop-color:#000000"
         id="rect331397"
         width="135.46666"
         height="135.46666"
         x="3733.2869"
         y="303.46707" /></g></g></svg>
