<?xml version="1.0" encoding="UTF-8" standalone="no"?>
<!-- Created with Inkscape (http://www.inkscape.org/) -->

<svg
   width="122.08691mm"
   height="122.08716mm"
   viewBox="0 0 122.08691 122.08716"
   version="1.1"
   id="svg1202"
   xml:space="preserve"
   xmlns="http://www.w3.org/2000/svg"
   xmlns:svg="http://www.w3.org/2000/svg"><defs
     id="defs1199"><style
       id="style59759">
      .card { fill: #f3e6cf; stroke: #d6c8ad; stroke-width: 3; rx: 12; ry: 12; }
      .hole { fill: #ffffff; stroke: #dcdcdc; stroke-width: 1.2; rx: 6; ry: 6; }
      .solid { fill: #1f1f1f; }
      .label { font-family: &quot;Courier New&quot;, Courier, monospace; font-size: 14px; fill: #333333; }
      .title { font-family: &quot;Courier New&quot;, Courier, monospace; font-size: 20px; font-weight:700; fill: #111111; }
      .bitnum { font-family: &quot;Courier New&quot;, Courier, monospace; font-size: 12px; fill: #444444; }
      .note { font-family: &quot;Courier New&quot;, Courier, monospace; font-size: 12px; fill: #333333; opacity: 0.9; }
      .frame { fill: none; stroke: rgba(0,0,0,0.04); stroke-width: 2; rx: 10; ry: 10; }
    </style><style
       id="style60322">
      .card { fill: #f7f2e7; stroke: #e0d3b8; stroke-width: 3; rx: 12; ry: 12; }
      .hole { fill: #ffffff; stroke: #dcdcdc; stroke-width: 1.2; rx: 8; ry: 8; }
      .solid { fill: #232323; }
      .label { font-family: &quot;Courier New&quot;, Courier, monospace; font-size: 14px; fill: #333333; }
      .title { font-family: &quot;Courier New&quot;, Courier, monospace; font-size: 18px; font-weight:700; fill: #111111; }
      .bitnum { font-family: &quot;Courier New&quot;, Courier, monospace; font-size: 12px; fill: #444444; }
      .note { font-family: &quot;Courier New&quot;, Courier, monospace; font-size: 12px; fill: #333333; opacity: 0.95; }
      .frame { fill: none; stroke: rgba(0,0,0,0.05); stroke-width: 2; rx: 10; ry: 10; }
    </style></defs><g
     id="layer1"
     transform="translate(-15969.306,-2723.7071)"><g
       id="g36499-9-2-3-8"
       transform="matrix(0.92434784,0,0,0.92434784,993.97907,1699.4867)"><path
         style="font-variation-settings:normal;vector-effect:none;fill:#3498db;fill-opacity:1;stroke-width:0.032032;-inkscape-stroke:none;stop-color:#000000"
         d="m 16262.504,1240.1257 v -61.539 h -61.538 v 61.539 z"
         id="path35602-0-2-0-0-4-8-8-9" /><path
         id="path35600-8-8-6-3-3-8-0-0"
         style="font-variation-settings:normal;vector-effect:none;fill:#f7931a;fill-opacity:1;stroke-width:0.032032;-inkscape-stroke:none;stop-color:#000000"
         d="m 16271.503,1152.9967 v 10.2262 c 3.088,-3.0884 6.516,-6.5159 10.226,-10.2262 z m 22.954,0 c -9.261,9.2612 -16.826,16.8257 -22.954,22.9536 v 64.1754 c 9.6,-9.5989 21.489,-21.4878 22.961,-22.9598 v -64.1692 z" /><path
         id="path35598-5-4-2-9-5-8-4-6"
         style="font-variation-settings:normal;vector-effect:none;fill:#f7931a;fill-opacity:1;stroke-width:0.032032;-inkscape-stroke:none;stop-color:#000000"
         d="m 16223.926,1146.6255 c -1.475,1.475 -12.783,12.7844 -22.961,22.9614 h 64.174 c 6.129,-6.1299 13.696,-13.696 22.961,-22.9614 z m 64.18,12.7233 c -3.715,3.7155 -7.146,7.146 -10.238,10.2381 h 10.238 z" /><path
         id="path35596-0-7-9-1-1-6-7-8"
         style="font-variation-settings:normal;vector-effect:none;fill:#63e038;fill-opacity:1;stroke-width:0.032032;-inkscape-stroke:none;stop-color:#000000"
         d="m 16303.464,1114.4156 v 16.846 c 8.6,-8.6 6.027,-6.0276 16.846,-16.846 z m 29.575,0 c -20.58,20.5801 -15.833,15.8328 -29.575,29.5754 v 96.1347 l 29.58,-29.5801 v -96.13 z" /><path
         id="rect126287-1-0-4-8-0-6-2-9-9-7-8-6-7"
         style="font-variation-settings:normal;vector-effect:none;fill:#63e038;fill-opacity:1;stroke-width:0.032032;-inkscape-stroke:none;stop-color:#000000"
         d="m 16230.545,1108.0465 c -13.095,13.096 -25.537,25.537 -29.579,29.579 h 96.134 c 13.745,-13.7446 8.995,-8.9949 29.579,-29.579 z m 96.141,12.7217 c -10.827,10.8273 -8.251,8.2515 -16.857,16.8573 h 16.857 z" /></g></g></svg>
